<svg width="345" height="269" viewBox="0 0 345 269" fill="none" xmlns="http://www.w3.org/2000/svg">
<g clip-path="url(#clip0_11_285)">
<path d="M71.6219 176.939C56.0238 161.555 49.4359 145.506 53.0713 131.748C57.7366 114.093 78.4621 101.886 109.934 98.2569L110.05 99.2696C79.0164 102.848 58.6071 114.781 54.0548 132.009C50.5169 145.398 57.0091 161.096 72.3357 176.213L71.6219 176.939Z" fill="#C6EBFF"/>
<path d="M222.117 231.547C202.649 231.547 181.495 228.648 160.482 223.075C134.497 216.183 110.672 205.78 91.5817 192.991L92.1469 192.144C111.145 204.871 134.865 215.226 160.742 222.09C184.127 228.292 207.688 231.166 228.868 230.408L228.904 231.426C226.668 231.507 224.405 231.547 222.117 231.547Z" fill="#C6EBFF"/>
<path d="M266.777 225.137L266.451 224.172C283.862 218.274 294.752 208.774 297.943 196.696C302 181.343 293.187 163.527 273.126 146.53C252.963 129.446 223.888 115.271 191.256 106.616L191.516 105.63C224.291 114.324 253.508 128.572 273.783 145.752C294.16 163.017 303.09 181.203 298.927 196.957C295.644 209.381 284.527 219.125 266.777 225.137Z" fill="#C6EBFF"/>
<path d="M106.905 231.973C68.6526 214.976 39.1765 192.924 23.9066 169.88L24.754 169.316C39.9184 192.201 69.2398 214.122 107.317 231.041L106.905 231.973Z" fill="#C6EBFF"/>
<path d="M241.396 261.418C237.451 261.418 233.438 261.33 229.357 261.154L229.401 260.135C259.851 261.456 286.718 257.805 307.101 249.576L307.482 250.521C289.701 257.699 267.037 261.418 241.396 261.418Z" fill="#C6EBFF"/>
<path d="M219.202 99.1709C212.879 97.1086 206.376 95.1884 199.873 93.4635C162.45 83.5377 125.662 80.0136 93.4862 83.274L93.3838 82.2597C125.68 78.9886 162.593 82.5213 200.133 92.4781C206.655 94.208 213.176 96.1337 219.517 98.2019L219.202 99.1709Z" fill="#C6EBFF"/>
<path d="M47.7153 178.467C32.1172 163.084 25.5294 147.034 29.1647 133.277C33.83 115.622 54.5555 103.415 86.027 99.7857L86.1432 100.798C55.1098 104.377 34.7005 116.31 30.1482 133.538C26.6103 146.926 33.1025 162.625 48.4291 177.741L47.7153 178.467Z" fill="#C6EBFF"/>
<path d="M198.21 233.075C178.743 233.075 157.588 230.177 136.575 224.604C110.59 217.712 86.7651 207.309 67.6751 194.52L68.2404 193.673C87.2385 206.4 110.958 216.755 136.836 223.618C160.221 229.821 183.781 232.695 204.961 231.937L204.998 232.955C202.761 233.036 200.498 233.076 198.21 233.075Z" fill="#C6EBFF"/>
<path d="M242.87 226.666L242.545 225.701C259.955 219.803 270.845 210.302 274.037 198.225C278.093 182.872 269.28 165.056 249.22 148.059C229.057 130.975 199.982 116.8 167.349 108.145L167.61 107.159C200.385 115.852 229.601 130.101 249.876 147.281C270.254 164.546 279.183 182.731 275.02 198.486C271.737 210.909 260.62 220.654 242.87 226.666Z" fill="#C6EBFF"/>
<path d="M82.9982 233.501C44.7461 216.504 15.2699 194.453 0 171.409L0.847426 170.845C16.0118 193.73 45.3332 215.65 83.4105 232.57L82.9982 233.501Z" fill="#C6EBFF"/>
<path d="M217.49 262.947C213.544 262.947 209.531 262.859 205.451 262.682L205.495 261.664C235.945 262.985 262.811 259.334 283.195 251.104L283.575 252.05C265.794 259.228 243.13 262.947 217.49 262.947Z" fill="#C6EBFF"/>
<path d="M195.295 100.7C188.973 98.6374 182.47 96.7172 175.966 94.9923C138.543 85.0665 101.756 81.5424 69.5796 84.8028L69.4772 83.7885C101.773 80.5174 138.687 84.0501 176.227 94.0069C182.748 95.7368 189.27 97.6625 195.61 99.7307L195.295 100.7Z" fill="#C6EBFF"/>
<path d="M17.3394 151.169C24.6498 142.957 36.3112 137.952 46.8791 140.948C37.1298 147.86 30.1351 158.005 27.1326 169.586C25.9909 174.057 25.1856 179.149 21.4744 181.882C19.1652 183.583 16.1055 183.99 13.2657 183.602C10.4258 183.215 7.74057 182.108 5.09159 181.012L4.37877 181.074C6.42817 170.264 10.0289 159.381 17.3394 151.169Z" fill="#C6EBFF"/>
<path d="M46.8468 141.177C38.0114 143.32 30.0746 148.198 24.1638 155.118C22.865 156.585 21.805 158.248 21.0231 160.046C20.3178 161.821 20.1001 163.754 20.3925 165.643C20.6298 167.409 21.0768 169.189 20.8814 170.982C20.7678 171.899 20.462 172.781 19.9843 173.571C19.5065 174.361 18.8674 175.04 18.109 175.566C16.2532 176.923 14.0212 177.532 11.8179 178.051C9.37143 178.627 6.82125 179.187 4.82703 180.816C4.5854 181.014 4.29387 180.626 4.53514 180.429C8.00474 177.595 12.8267 177.959 16.6655 175.901C18.4567 174.94 19.9699 173.433 20.3378 171.365C20.6595 169.557 20.2002 167.721 19.9445 165.935C19.6322 164.097 19.774 162.21 20.3575 160.439C21.0456 158.607 22.0398 156.906 23.2975 155.409C26.0755 151.992 29.3724 149.034 33.0675 146.643C37.2695 143.891 41.9105 141.879 46.7897 140.695C47.0917 140.622 47.1469 141.104 46.8468 141.177Z" fill="white"/>
<path d="M25.9362 152.777C24.912 151.626 24.3296 150.148 24.2929 148.606C24.2563 147.065 24.7679 145.56 25.7362 144.361C25.933 144.12 26.3174 144.414 26.1204 144.657C25.2166 145.771 24.7402 147.173 24.7772 148.608C24.8142 150.044 25.3622 151.419 26.3223 152.485C26.5307 152.717 26.1433 153.008 25.9362 152.777Z" fill="white"/>
<path d="M20.1544 164.763C23.294 164.972 26.3968 163.988 28.8441 162.006C29.0865 161.81 29.3781 162.197 29.136 162.393C26.5854 164.45 23.3544 165.468 20.0878 165.243C19.7764 165.222 19.8448 164.741 20.1544 164.763Z" fill="white"/>
<path d="M37.3784 144.525C37.682 145.053 38.1118 145.497 38.6292 145.818C39.1466 146.138 39.7354 146.325 40.3427 146.361C40.6541 146.379 40.5855 146.859 40.276 146.842C39.6053 146.798 38.9553 146.591 38.3829 146.238C37.8104 145.885 37.333 145.397 36.9922 144.817C36.9555 144.765 36.94 144.701 36.9487 144.638C36.9575 144.575 36.9899 144.517 37.0393 144.477C37.0907 144.439 37.1551 144.422 37.2185 144.431C37.282 144.44 37.3395 144.474 37.3784 144.525Z" fill="white"/>
<path d="M61.8804 175.038C61.6856 175.032 61.4908 175.027 61.2935 175.024C58.6743 174.964 56.0545 175.117 53.46 175.482C53.2589 175.507 53.0556 175.536 52.8557 175.567C46.6143 176.512 40.6024 178.611 35.1257 181.756C32.9476 183.009 30.8677 184.427 28.9042 185.996C26.1927 188.164 23.4249 190.73 20.2504 191.841C19.9205 191.961 19.5835 192.06 19.2414 192.138L4.50941 181.94C4.48753 181.9 4.46319 181.863 4.44115 181.823L3.83437 181.443C3.92999 181.355 4.03105 181.266 4.12667 181.178C4.18193 181.127 4.24049 181.078 4.29572 181.026C4.3336 180.993 4.37166 180.959 4.40393 180.927C4.4165 180.916 4.42923 180.905 4.43948 180.897C4.47176 180.864 4.50516 180.838 4.5351 180.809C5.09865 180.308 5.66669 179.811 6.23922 179.317C6.24155 179.314 6.24155 179.314 6.24716 179.312C10.6192 175.558 15.3424 172.136 20.4339 169.541C20.5871 169.463 20.7425 169.382 20.9024 169.309C23.2039 168.152 25.5959 167.185 28.0546 166.419C29.4022 166.003 30.77 165.657 32.1526 165.38C35.7264 164.672 39.3893 164.531 43.0067 164.963C50.218 165.826 57.0737 168.989 61.5431 174.605C61.6574 174.749 61.7685 174.891 61.8804 175.038Z" fill="#C6EBFF"/>
<path d="M61.7181 175.202C53.3755 171.584 44.107 170.691 35.2292 172.651C33.3105 173.039 31.4649 173.727 29.7602 174.691C28.1299 175.683 26.7946 177.095 25.8931 178.78C25.021 180.333 24.3086 182.024 23.0748 183.338C22.4332 184.001 21.659 184.521 20.8028 184.863C19.9466 185.206 19.0279 185.363 18.1068 185.325C15.8091 185.29 13.6613 184.429 11.59 183.515C9.29025 182.499 6.91758 181.408 4.34645 181.506C4.03492 181.518 4.03481 181.033 4.34587 181.021C8.81919 180.851 12.4506 184.05 16.7527 184.722C18.7601 185.036 20.874 184.745 22.4105 183.316C23.7542 182.066 24.4904 180.323 25.3598 178.743C26.2152 177.087 27.4623 175.666 28.9923 174.604C30.6425 173.556 32.4586 172.798 34.3628 172.361C38.6342 171.308 43.0442 170.935 47.4312 171.255C52.4402 171.592 57.3546 172.785 61.9619 174.783C62.247 174.907 62.0013 175.325 61.7181 175.202Z" fill="white"/>
<path d="M38.0508 171.851C37.9248 170.314 38.3482 168.783 39.2454 167.53C40.1426 166.277 41.4552 165.384 42.9487 165.011C43.2512 164.937 43.3808 165.404 43.078 165.478C41.6866 165.823 40.464 166.655 39.6309 167.823C38.7978 168.992 38.409 170.42 38.5348 171.851C38.5618 172.162 38.0776 172.16 38.0508 171.851Z" fill="white"/>
<path d="M26.2317 177.934C28.613 179.994 31.6819 181.08 34.8266 180.974C35.1381 180.963 35.1384 181.448 34.8272 181.459C31.5545 181.563 28.3631 180.427 25.8899 178.277C25.6543 178.072 25.9974 177.73 26.2317 177.934Z" fill="white"/>
<path d="M52.1462 172.164C52.0713 172.769 52.1474 173.383 52.3679 173.951C52.5884 174.519 52.9462 175.023 53.4093 175.418C53.6473 175.62 53.3039 175.962 53.0674 175.762C52.5578 175.323 52.1633 174.765 51.9183 174.138C51.6734 173.511 51.5854 172.833 51.6622 172.164C51.6641 172.101 51.6902 172.04 51.7351 171.995C51.78 171.95 51.8403 171.924 51.9039 171.922C51.968 171.922 52.0294 171.947 52.0748 171.993C52.1201 172.038 52.1458 172.1 52.1462 172.164Z" fill="white"/>
<path d="M303.789 218.485C299.659 208.289 290.355 199.649 279.397 198.912C286.26 208.705 289.445 220.615 288.387 232.534C287.963 237.129 287.013 242.195 289.591 246.02C291.195 248.399 293.941 249.812 296.745 250.403C299.55 250.995 302.45 250.857 305.313 250.716L305.964 251.015C307.66 240.143 307.92 228.681 303.789 218.485Z" fill="#C6EBFF"/>
<path d="M279.35 199.138C286.953 204.132 292.792 211.399 296.037 219.906C296.768 221.725 297.209 223.648 297.342 225.605C297.41 227.515 296.967 229.409 296.058 231.089C295.242 232.673 294.224 234.198 293.806 235.953C293.606 236.855 293.598 237.788 293.783 238.693C293.968 239.598 294.342 240.453 294.88 241.203C296.172 243.107 298.07 244.432 299.971 245.663C302.082 247.029 304.296 248.415 305.628 250.621C305.789 250.888 306.194 250.622 306.032 250.355C303.715 246.518 299.052 245.237 296.127 242.005C294.762 240.498 293.843 238.569 294.19 236.497C294.494 234.685 295.542 233.111 296.382 231.515C297.293 229.889 297.792 228.064 297.837 226.2C297.803 224.243 297.438 222.306 296.755 220.472C295.285 216.318 293.173 212.422 290.494 208.926C287.46 204.919 283.764 201.462 279.566 198.704C279.306 198.533 279.092 198.969 279.35 199.138Z" fill="white"/>
<path d="M295.153 217.105C296.504 216.366 297.548 215.17 298.1 213.73C298.652 212.29 298.675 210.701 298.165 209.246C298.06 208.952 297.599 209.1 297.704 209.395C298.181 210.749 298.16 212.229 297.643 213.569C297.127 214.908 296.149 216.019 294.887 216.7C294.613 216.848 294.88 217.253 295.153 217.105Z" fill="white"/>
<path d="M296.578 230.34C293.551 229.48 290.958 227.508 289.318 224.818C289.156 224.551 288.751 224.818 288.913 225.084C290.626 227.88 293.327 229.927 296.479 230.815C296.78 230.9 296.876 230.424 296.578 230.34Z" fill="white"/>
<path d="M287.145 205.48C286.682 205.875 286.128 206.149 285.533 206.276C284.938 206.404 284.321 206.382 283.737 206.211C283.438 206.123 283.341 206.599 283.639 206.686C284.285 206.871 284.966 206.895 285.624 206.756C286.282 206.616 286.895 206.317 287.411 205.885C287.463 205.848 287.499 205.793 287.512 205.731C287.525 205.669 287.513 205.604 287.48 205.549C287.445 205.496 287.39 205.459 287.327 205.445C287.264 205.432 287.199 205.445 287.145 205.48Z" fill="white"/>
<path d="M253.832 225.967C254.017 226.028 254.203 226.088 254.389 226.152C256.876 226.978 259.292 228.004 261.613 229.221C261.794 229.313 261.976 229.408 262.154 229.504C267.715 232.497 272.673 236.498 276.777 241.303C278.408 243.217 279.891 245.253 281.214 247.392C283.04 250.347 284.786 253.696 287.403 255.811C287.674 256.035 287.958 256.242 288.254 256.43L305.55 251.787C305.584 251.756 305.619 251.73 305.653 251.699L306.352 251.546C306.292 251.431 306.227 251.313 306.166 251.197C306.131 251.13 306.093 251.065 306.058 250.998C306.033 250.953 306.009 250.909 305.989 250.868C305.981 250.853 305.973 250.838 305.966 250.827C305.946 250.786 305.924 250.75 305.905 250.712C305.542 250.051 305.174 249.392 304.801 248.733C304.8 248.729 304.8 248.729 304.795 248.726C301.937 243.718 298.636 238.905 294.711 234.747C294.593 234.622 294.474 234.493 294.348 234.37C292.569 232.505 290.64 230.789 288.581 229.24C287.452 228.395 286.28 227.608 285.07 226.881C281.942 225.011 278.539 223.645 274.987 222.834C267.906 221.218 260.388 221.889 254.295 225.673C254.139 225.77 253.987 225.866 253.832 225.967Z" fill="#C6EBFF"/>
<path d="M253.93 226.177C263.001 225.578 272.03 227.858 279.734 232.693C281.41 233.705 282.918 234.975 284.2 236.456C285.402 237.94 286.186 239.719 286.47 241.609C286.771 243.366 286.875 245.198 287.596 246.851C287.977 247.692 288.532 248.442 289.224 249.053C289.915 249.664 290.728 250.122 291.608 250.396C293.784 251.136 296.095 251.049 298.353 250.885C300.86 250.703 303.46 250.475 305.849 251.432C306.139 251.548 306.301 251.092 306.012 250.976C301.856 249.31 297.363 251.1 293.086 250.284C291.09 249.903 289.196 248.918 288.229 247.054C287.383 245.425 287.274 243.536 286.985 241.754C286.735 239.906 286.037 238.148 284.953 236.633C283.75 235.09 282.294 233.765 280.647 232.712C276.977 230.282 272.949 228.446 268.71 227.27C263.879 225.901 258.85 225.37 253.841 225.7C253.531 225.72 253.622 226.197 253.93 226.177Z" fill="white"/>
<path d="M277.344 230.99C277.979 229.585 278.094 228 277.669 226.518C277.244 225.035 276.308 223.753 275.026 222.899C274.766 222.727 274.487 223.123 274.747 223.295C275.942 224.089 276.815 225.283 277.207 226.665C277.6 228.046 277.487 229.522 276.889 230.827C276.759 231.11 277.215 231.272 277.344 230.99Z" fill="white"/>
<path d="M286.435 240.698C283.501 241.837 280.247 241.826 277.32 240.668C277.031 240.553 276.868 241.01 277.157 241.125C280.205 242.324 283.592 242.329 286.642 241.137C286.933 241.023 286.724 240.585 286.435 240.698Z" fill="white"/>
<path d="M263.964 226.538C263.832 227.133 263.554 227.686 263.156 228.147C262.758 228.607 262.251 228.962 261.683 229.178C261.391 229.288 261.599 229.726 261.889 229.617C262.517 229.375 263.075 228.982 263.516 228.474C263.957 227.966 264.268 227.358 264.42 226.702C264.439 226.641 264.435 226.575 264.408 226.518C264.381 226.46 264.333 226.415 264.273 226.392C264.213 226.37 264.147 226.374 264.089 226.401C264.031 226.429 263.986 226.478 263.964 226.538Z" fill="white"/>
<path d="M238.071 183.766C240.319 183.766 242.141 181.941 242.141 179.689C242.141 177.437 240.319 175.612 238.071 175.612C235.824 175.612 234.002 177.437 234.002 179.689C234.002 181.941 235.824 183.766 238.071 183.766Z" fill="#C6EBFF"/>
<path d="M162.353 70.6831C164.601 70.6831 166.422 68.8579 166.422 66.6063C166.422 64.3548 164.601 62.5295 162.353 62.5295C160.106 62.5295 158.284 64.3548 158.284 66.6063C158.284 68.8579 160.106 70.6831 162.353 70.6831Z" fill="#C6EBFF"/>
<path d="M77.0809 222.992C77.0809 224.03 77.115 225.067 77.1875 226.097C77.2642 227.327 77.3963 228.548 77.5754 229.761C78.1771 233.845 79.327 237.828 80.9941 241.604C81.0793 241.791 81.1646 241.979 81.2498 242.167L81.3777 242.449C81.4203 242.543 81.4672 242.637 81.5099 242.727C81.5695 242.851 81.625 242.97 81.6846 243.09C81.7571 243.239 81.8296 243.389 81.9063 243.538C81.9148 243.555 81.9233 243.577 81.9361 243.598C82.0001 243.726 82.0598 243.85 82.128 243.978C82.1405 244.006 82.1547 244.033 82.1706 244.059C82.2431 244.204 82.3198 244.354 82.3965 244.499C82.4818 244.653 82.5628 244.811 82.648 244.965C82.8526 245.345 83.0658 245.721 83.2832 246.096C83.3471 246.207 83.411 246.318 83.4792 246.429C83.5389 246.532 83.5986 246.634 83.6625 246.737C83.7052 246.805 83.7478 246.878 83.7904 246.946C83.8586 247.062 83.9268 247.173 83.9993 247.288C84.157 247.54 84.319 247.792 84.4767 248.044H84.481C84.5534 248.159 84.6302 248.274 84.7069 248.385V248.39C84.9328 248.731 85.1673 249.073 85.4017 249.41L85.4034 249.411L85.4048 249.412L85.4057 249.413L85.406 249.415C85.5936 249.688 85.7896 249.953 85.9815 250.218V250.222C86.1093 250.388 86.233 250.559 86.3608 250.726C86.4631 250.862 86.5697 251.003 86.6763 251.14C86.6976 251.17 86.7232 251.195 86.7445 251.225V251.23C86.7743 251.268 86.8042 251.302 86.834 251.341C87.2858 251.922 87.7519 252.49 88.2322 253.045L88.3089 253.134C88.3345 253.164 88.3643 253.194 88.3899 253.228C88.4325 253.275 88.4709 253.322 88.5135 253.369C88.5519 253.416 88.5945 253.463 88.6371 253.51C91.1407 256.336 93.9794 258.844 97.0901 260.98C97.5036 261.266 97.9256 261.543 98.3476 261.812C98.4542 261.881 98.5608 261.949 98.6673 262.013C98.6972 262.035 98.7313 262.056 98.7611 262.077C98.8208 262.111 98.8762 262.146 98.9359 262.184C98.9913 262.218 99.0467 262.252 99.1064 262.286C99.3323 262.427 99.5625 262.564 99.7927 262.701C99.8481 262.735 99.9078 262.769 99.9675 262.803C100.023 262.833 100.083 262.867 100.142 262.901C100.142 262.906 100.142 262.906 100.146 262.906H100.151V262.91H100.155C100.441 263.077 100.73 263.239 101.025 263.397C101.182 263.482 101.344 263.572 101.506 263.653C101.873 263.854 102.244 264.046 102.615 264.23C102.747 264.294 102.883 264.358 103.015 264.426C103.126 264.477 103.237 264.533 103.348 264.584C103.382 264.601 103.412 264.614 103.442 264.631C103.535 264.674 103.625 264.716 103.719 264.759C103.821 264.806 103.923 264.853 104.021 264.9C104.136 264.951 104.247 265.003 104.362 265.05C104.789 265.242 105.219 265.425 105.65 265.601C107.193 266.234 108.769 266.782 110.373 267.24C110.445 267.262 110.522 267.283 110.599 267.305C111.285 267.497 111.976 267.672 112.67 267.83C113.885 268.112 115.112 268.342 116.349 268.522H116.358C116.507 268.543 116.652 268.564 116.801 268.586C116.814 268.586 116.827 268.59 116.844 268.59C116.844 268.594 116.844 268.594 116.848 268.59C117.01 268.611 117.176 268.633 117.338 268.654C117.349 268.657 117.361 268.659 117.372 268.658C117.526 268.68 117.683 268.697 117.837 268.714C118.003 268.731 118.169 268.748 118.336 268.765C118.463 268.778 118.591 268.791 118.719 268.804C118.73 268.807 118.742 268.809 118.753 268.808C118.868 268.816 118.983 268.829 119.099 268.838H119.116C119.214 268.846 119.316 268.855 119.414 268.863C120.603 268.957 121.797 269 123.007 269C124.316 269 125.616 268.949 126.899 268.838H126.912C127.189 268.812 127.462 268.786 127.735 268.761C127.807 268.752 127.876 268.748 127.948 268.739C127.961 268.739 127.978 268.735 127.991 268.735C128.012 268.731 128.033 268.731 128.059 268.727C128.07 268.727 128.082 268.726 128.093 268.722C128.187 268.714 128.28 268.701 128.379 268.693L128.698 268.654C128.805 268.641 128.911 268.624 129.018 268.611C129.044 268.607 129.065 268.607 129.09 268.603C129.167 268.594 129.244 268.581 129.321 268.569C129.359 268.564 129.397 268.56 129.431 268.556C129.508 268.543 129.581 268.535 129.657 268.522H129.662C132.001 268.184 134.31 267.663 136.567 266.963C136.687 266.924 136.806 266.89 136.925 266.852C136.93 266.852 136.934 266.848 136.938 266.848C136.972 266.835 137.011 266.826 137.045 266.813C137.364 266.711 137.68 266.604 137.995 266.493C138.43 266.348 138.861 266.19 139.291 266.028C139.406 265.981 139.521 265.938 139.636 265.891C139.871 265.801 140.101 265.707 140.331 265.613C140.723 265.455 141.116 265.289 141.503 265.118C141.866 264.956 142.224 264.793 142.582 264.623C142.59 264.618 142.603 264.618 142.612 264.61C142.693 264.571 142.774 264.533 142.85 264.494H142.855C144.818 263.551 146.711 262.467 148.52 261.253C149.1 260.864 149.671 260.463 150.233 260.049C150.685 259.711 151.129 259.37 151.572 259.019C153.759 257.277 155.784 255.338 157.621 253.228V253.224C157.753 253.079 157.877 252.929 158.004 252.78C158.026 252.759 158.043 252.737 158.06 252.72C158.141 252.622 158.218 252.528 158.299 252.434V252.43C158.405 252.306 158.512 252.178 158.614 252.05C158.64 252.02 158.661 251.994 158.682 251.969V251.964C158.767 251.862 158.848 251.759 158.934 251.652C158.976 251.601 159.015 251.55 159.057 251.499V251.494C159.309 251.178 159.552 250.862 159.795 250.538C159.859 250.452 159.923 250.363 159.991 250.273C160.298 249.859 160.596 249.436 160.886 249.013V249.009C160.997 248.851 161.103 248.689 161.214 248.531C161.321 248.368 161.427 248.206 161.534 248.044C161.641 247.873 161.751 247.706 161.858 247.536L161.871 247.51C161.977 247.348 162.084 247.177 162.186 247.01C162.267 246.874 162.348 246.741 162.429 246.609C162.48 246.519 162.536 246.429 162.587 246.336C162.607 246.307 162.625 246.277 162.642 246.246C162.762 246.037 162.881 245.827 163 245.618C163.141 245.375 163.277 245.127 163.414 244.879C163.465 244.777 163.52 244.674 163.576 244.572C163.597 244.538 163.614 244.503 163.631 244.469C163.695 244.35 163.759 244.226 163.819 244.102C163.883 243.982 163.947 243.859 164.011 243.735C164.07 243.615 164.134 243.491 164.194 243.367C164.241 243.273 164.283 243.18 164.33 243.086C164.334 243.078 164.338 243.071 164.343 243.064C164.364 243.017 164.386 242.975 164.403 242.932C164.408 242.925 164.412 242.918 164.416 242.91C164.462 242.816 164.505 242.718 164.552 242.624C164.612 242.5 164.667 242.372 164.727 242.248C164.765 242.163 164.808 242.073 164.846 241.984C164.902 241.86 164.961 241.736 165.012 241.608C165.072 241.48 165.127 241.352 165.183 241.219C165.199 241.187 165.213 241.155 165.226 241.121C165.255 241.061 165.277 241.001 165.302 240.942C165.37 240.784 165.439 240.621 165.503 240.463C165.579 240.284 165.652 240.1 165.72 239.921C165.788 239.754 165.852 239.584 165.916 239.413L165.942 239.353C166.935 236.732 167.688 234.026 168.192 231.269V231.264C168.477 229.69 168.68 228.102 168.802 226.507C168.806 226.417 168.815 226.332 168.819 226.246C168.896 225.166 168.93 224.081 168.93 222.992C168.93 222.509 168.921 222.031 168.908 221.553C168.611 211.549 165.05 201.919 158.772 194.135C158.635 193.964 158.499 193.793 158.358 193.622C158.218 193.452 158.073 193.285 157.932 193.119C153.259 187.636 147.366 183.33 140.727 180.548C134.088 177.766 126.89 176.586 119.712 177.102C112.535 177.619 105.579 179.818 99.4049 183.522C93.2312 187.226 88.0126 192.332 84.1698 198.427C83.961 198.76 83.7521 199.097 83.5517 199.435C83.3471 199.777 83.151 200.118 82.9549 200.464C79.0932 207.341 77.0698 215.101 77.0809 222.992Z" fill="#C6EBFF"/>
<path d="M121.182 192.898C128.734 194.839 136.473 195.958 144.264 196.236C145.442 196.3 146.623 196.292 147.8 196.212C150.387 195.994 152.603 195.179 155.071 194.734C156.258 194.52 157.579 194.364 158.774 194.134C158.498 193.791 158.217 193.452 157.931 193.117C155.355 193.335 152.74 194.049 150.133 194.38C145.702 194.945 140.738 194.315 137.379 192.761C135.749 192.008 134.501 191.067 132.877 190.31C132.656 190.196 132.417 190.122 132.17 190.093C131.702 190.079 131.24 190.199 130.837 190.439C128.113 191.817 124.157 192.937 120.486 192.321C120.212 192.535 120.732 192.78 121.182 192.898Z" fill="white"/>
<path d="M104.935 197.747C104.901 197.741 104.868 197.736 104.834 197.731C104.975 197.643 105.108 197.543 105.231 197.431L104.935 197.747Z" fill="white"/>
<path d="M82.9558 200.466C84.4893 200.589 86.0307 200.68 87.5802 200.74C88.7584 200.804 89.9394 200.796 91.1167 200.716C93.7037 200.497 95.9197 199.683 98.3877 199.238C100.649 198.831 103.398 198.635 104.834 197.731C101.122 197.087 97.2768 198.397 93.4495 198.885C90.3536 199.266 87.2153 199.111 84.1721 198.426C83.7483 199.094 83.3429 199.774 82.9558 200.466Z" fill="white"/>
<path d="M101.506 263.653C101.873 263.854 102.244 264.046 102.615 264.23C102.747 264.294 102.883 264.358 103.015 264.426C103.126 264.477 103.237 264.533 103.348 264.584C103.382 264.601 103.412 264.614 103.442 264.631C103.535 264.674 103.625 264.717 103.719 264.759C103.821 264.806 103.923 264.853 104.021 264.9C104.136 264.951 104.247 265.003 104.362 265.05C104.789 265.242 105.219 265.425 105.65 265.601C107.193 266.234 108.769 266.782 110.373 267.24C110.445 267.262 110.522 267.283 110.599 267.305C111.285 267.497 111.976 267.672 112.67 267.83C113.885 268.112 115.112 268.342 116.349 268.522H116.358C116.507 268.543 116.652 268.564 116.801 268.586C116.814 268.586 116.827 268.59 116.844 268.59C116.844 268.594 116.844 268.594 116.848 268.59C117.01 268.611 117.176 268.633 117.338 268.654C117.349 268.657 117.361 268.659 117.372 268.658C117.526 268.68 117.683 268.697 117.837 268.714C118.003 268.731 118.169 268.748 118.336 268.765C118.463 268.778 118.591 268.791 118.719 268.804C118.73 268.807 118.742 268.809 118.753 268.808C118.868 268.816 118.983 268.829 119.099 268.838H119.116C119.214 268.846 119.316 268.855 119.414 268.863C120.603 268.957 121.797 269 123.008 269C124.316 269 125.616 268.949 126.899 268.838H126.912C127.189 268.812 127.462 268.786 127.735 268.761C127.807 268.752 127.876 268.748 127.948 268.739C127.961 268.739 127.978 268.735 127.991 268.735C128.012 268.731 128.033 268.731 128.059 268.727C128.07 268.727 128.082 268.726 128.093 268.722C128.187 268.714 128.28 268.701 128.379 268.693L128.698 268.654C128.805 268.641 128.911 268.624 129.018 268.611C129.044 268.607 129.065 268.607 129.09 268.603C129.167 268.594 129.244 268.581 129.321 268.569C129.359 268.564 129.397 268.56 129.431 268.556C129.508 268.543 129.581 268.535 129.657 268.522H129.662C132.001 268.184 134.31 267.663 136.567 266.963C136.687 266.924 136.806 266.89 136.925 266.852C136.375 264.28 135.242 261.87 133.613 259.807C131.985 257.744 129.905 256.083 127.535 254.954C128.121 254.394 128.526 253.671 128.698 252.878C128.809 252.367 128.818 251.839 128.724 251.325C128.63 250.81 128.436 250.319 128.153 249.88C127.599 249.029 126.732 248.433 125.74 248.223L119.423 246.899C118.406 246.701 117.351 246.912 116.489 247.488C115.627 248.064 115.027 248.957 114.819 249.974C114.754 250.286 114.726 250.604 114.734 250.922C108.651 254.979 104.273 259.186 101.506 263.653Z" fill="#2EA6E5"/>
<path d="M120.16 244.399C127.428 244.399 133.321 238.496 133.321 231.213C133.321 223.931 127.428 218.027 120.16 218.027C112.891 218.027 106.998 223.931 106.998 231.213C106.998 238.496 112.891 244.399 120.16 244.399Z" fill="#FFB8B8"/>
<path d="M111.956 242.582C110.552 241.621 109.119 239.776 108.162 238.392C106.894 236.574 106.022 234.509 105.602 232.331C105.181 230.153 105.222 227.911 105.722 225.751C105.881 224.887 106.273 224.083 106.855 223.425C107.475 222.811 108.487 222.519 109.244 222.954C109.037 222.4 108.946 221.809 108.977 221.219C109.007 220.628 109.157 220.05 109.419 219.52C109.951 218.462 110.722 217.543 111.67 216.835C113.483 215.436 115.641 214.555 117.913 214.285C120.186 214.016 122.489 214.368 124.579 215.304C125.401 215.685 124.05 212.738 124.911 213.022C125.766 213.354 126.716 213.337 127.559 212.975C128.368 212.567 131.051 214.992 130.74 214.139C131.355 214.419 131.888 214.849 132.292 215.391C132.695 215.933 132.955 216.568 133.047 217.237C133.14 217.907 133.062 218.589 132.82 219.219C132.579 219.85 132.182 220.41 131.666 220.846C130.987 221.42 130.139 221.751 129.395 222.239C128.092 223.157 127.17 224.522 126.802 226.075C126.435 227.628 126.648 229.263 127.401 230.669C126.618 230.166 125.759 229.792 124.858 229.562C124.406 229.452 123.934 229.451 123.481 229.56C123.028 229.669 122.608 229.885 122.256 230.189C121.961 230.527 121.738 230.922 121.602 231.349C121.465 231.776 121.416 232.227 121.46 232.673C121.489 233.568 121.702 234.45 121.726 235.345C121.796 237.971 123.199 242.963 121.167 244.359C119.563 245.461 113.872 243.893 111.956 242.582Z" fill="#2F2E41"/>
<path d="M129.209 165.214C128.932 165.213 128.658 165.158 128.402 165.051C128.02 164.897 127.694 164.632 127.465 164.289C127.237 163.946 127.117 163.543 127.121 163.131V161.044C127.121 160.606 126.947 160.186 126.638 159.877C126.329 159.567 125.91 159.393 125.473 159.392C124.923 159.392 124.396 159.173 124.007 158.783C123.618 158.393 123.399 157.865 123.399 157.314V128.719C123.399 128.168 123.618 127.64 124.007 127.251C124.396 126.861 124.923 126.642 125.473 126.641H220.032C220.582 126.642 221.109 126.861 221.498 127.251C221.887 127.64 222.106 128.168 222.106 128.719V157.314C222.106 157.865 221.887 158.393 221.498 158.783C221.109 159.173 220.582 159.392 220.032 159.392H136.544C136.327 159.392 136.113 159.434 135.913 159.517C135.713 159.6 135.531 159.722 135.378 159.876L130.663 164.6C130.473 164.794 130.247 164.948 129.997 165.053C129.748 165.159 129.48 165.213 129.209 165.214Z" fill="white"/>
<path d="M129.209 165.641C128.876 165.641 128.546 165.574 128.238 165.445C127.779 165.26 127.385 164.94 127.11 164.527C126.834 164.114 126.69 163.627 126.695 163.131V161.044C126.695 160.719 126.566 160.408 126.337 160.178C126.108 159.949 125.797 159.82 125.473 159.819C124.81 159.819 124.175 159.554 123.706 159.085C123.237 158.615 122.973 157.978 122.972 157.314V128.719C122.973 128.055 123.237 127.418 123.706 126.949C124.174 126.479 124.81 126.215 125.473 126.214H220.032C220.695 126.215 221.33 126.479 221.799 126.949C222.268 127.418 222.532 128.055 222.532 128.719V157.314C222.532 157.978 222.268 158.615 221.799 159.085C221.33 159.554 220.695 159.819 220.032 159.819H136.544C136.383 159.819 136.224 159.85 136.076 159.912C135.928 159.973 135.793 160.064 135.68 160.178L130.964 164.902C130.735 165.135 130.462 165.321 130.161 165.448C129.859 165.575 129.536 165.64 129.209 165.641ZM125.473 127.068C125.036 127.069 124.617 127.243 124.308 127.552C123.999 127.862 123.825 128.282 123.825 128.719V157.314C123.825 157.752 123.999 158.171 124.308 158.481C124.617 158.791 125.036 158.965 125.473 158.965C126.023 158.966 126.551 159.185 126.939 159.575C127.328 159.965 127.547 160.493 127.548 161.044V163.131C127.548 163.457 127.644 163.777 127.826 164.048C128.007 164.32 128.264 164.531 128.565 164.656C128.866 164.781 129.198 164.814 129.517 164.75C129.837 164.686 130.131 164.529 130.361 164.298L135.077 159.574C135.269 159.38 135.498 159.227 135.749 159.122C136.001 159.018 136.271 158.964 136.544 158.965H220.032C220.469 158.965 220.888 158.791 221.197 158.481C221.506 158.171 221.679 157.752 221.68 157.314V128.719C221.679 128.282 221.506 127.862 221.197 127.552C220.888 127.243 220.469 127.069 220.032 127.068L125.473 127.068Z" fill="#3F3D56"/>
<path d="M211.906 139.587H135.229C134.936 139.587 134.655 139.47 134.448 139.262C134.241 139.055 134.124 138.774 134.124 138.48C134.124 138.187 134.241 137.905 134.448 137.698C134.655 137.49 134.936 137.374 135.229 137.374H211.906C212.199 137.374 212.48 137.49 212.687 137.698C212.894 137.905 213.01 138.187 213.01 138.48C213.01 138.774 212.894 139.055 212.687 139.262C212.48 139.47 212.199 139.587 211.906 139.587Z" fill="#2EA6E5"/>
<path d="M211.765 144.287H135.229C134.936 144.287 134.655 144.171 134.448 143.963C134.241 143.756 134.124 143.474 134.124 143.181C134.124 142.887 134.241 142.606 134.448 142.398C134.655 142.191 134.936 142.074 135.229 142.074H211.765C212.058 142.074 212.339 142.191 212.546 142.398C212.753 142.606 212.87 142.887 212.87 143.181C212.87 143.474 212.753 143.756 212.546 143.963C212.339 144.171 212.058 144.287 211.765 144.287Z" fill="#C6EBFF"/>
<path d="M211.689 148.988H135.229C134.936 148.988 134.655 148.871 134.448 148.664C134.241 148.456 134.124 148.175 134.124 147.881C134.124 147.588 134.241 147.306 134.448 147.099C134.655 146.891 134.936 146.775 135.229 146.775H211.689C211.982 146.775 212.263 146.891 212.47 147.099C212.677 147.306 212.793 147.588 212.793 147.881C212.793 148.175 212.677 148.456 212.47 148.664C212.263 148.871 211.982 148.988 211.689 148.988Z" fill="#C6EBFF"/>
<path d="M332.657 122.204C332.657 123.242 332.623 124.279 332.55 125.309C332.473 126.539 332.341 127.76 332.162 128.973C331.561 133.057 330.411 137.04 328.744 140.815C328.658 141.003 328.573 141.191 328.488 141.379L328.36 141.661C328.317 141.755 328.27 141.849 328.228 141.939C328.168 142.062 328.113 142.182 328.053 142.302C327.98 142.451 327.908 142.601 327.831 142.75C327.823 142.767 327.814 142.788 327.801 142.81C327.738 142.938 327.678 143.062 327.61 143.19C327.597 143.218 327.583 143.245 327.567 143.271C327.495 143.416 327.418 143.566 327.341 143.711C327.256 143.865 327.175 144.023 327.09 144.176C326.885 144.557 326.672 144.932 326.454 145.308C326.39 145.419 326.327 145.53 326.258 145.641C326.199 145.744 326.139 145.846 326.075 145.949C326.032 146.017 325.99 146.09 325.947 146.158C325.879 146.273 325.811 146.384 325.738 146.5C325.581 146.752 325.419 147.004 325.261 147.256H325.257C325.184 147.371 325.107 147.486 325.031 147.597V147.602C324.805 147.943 324.57 148.285 324.336 148.622C324.335 148.622 324.335 148.622 324.334 148.623C324.334 148.623 324.333 148.623 324.333 148.623C324.332 148.624 324.332 148.624 324.332 148.625C324.332 148.625 324.332 148.626 324.332 148.626C324.144 148.9 323.948 149.165 323.756 149.429V149.434C323.628 149.6 323.505 149.771 323.377 149.938C323.274 150.074 323.168 150.215 323.061 150.352C323.04 150.382 323.014 150.407 322.993 150.437V150.442C322.963 150.48 322.933 150.514 322.904 150.553C322.452 151.133 321.986 151.701 321.505 152.257L321.429 152.346C321.403 152.376 321.373 152.406 321.348 152.44C321.305 152.487 321.267 152.534 321.224 152.581C321.186 152.628 321.143 152.675 321.1 152.722C318.597 155.547 315.758 158.056 312.647 160.191C312.234 160.478 311.812 160.755 311.39 161.024C311.283 161.093 311.177 161.161 311.07 161.225C311.04 161.246 311.006 161.268 310.976 161.289C310.917 161.323 310.861 161.357 310.802 161.396C310.746 161.43 310.691 161.464 310.631 161.498C310.405 161.639 310.175 161.776 309.945 161.913C309.889 161.947 309.83 161.981 309.77 162.015C309.715 162.045 309.655 162.079 309.595 162.113C309.595 162.118 309.595 162.118 309.591 162.118H309.587V162.122H309.583C309.297 162.288 309.007 162.451 308.713 162.609C308.555 162.694 308.393 162.784 308.231 162.865C307.865 163.066 307.494 163.258 307.123 163.441C306.991 163.506 306.854 163.57 306.722 163.638C306.611 163.689 306.501 163.745 306.39 163.796C306.356 163.813 306.326 163.826 306.296 163.843C306.202 163.886 306.113 163.928 306.019 163.971C305.917 164.018 305.814 164.065 305.716 164.112C305.601 164.163 305.49 164.214 305.375 164.261C304.949 164.454 304.518 164.637 304.088 164.812C302.545 165.446 300.968 165.994 299.365 166.452C299.292 166.474 299.216 166.495 299.139 166.516C298.453 166.709 297.762 166.884 297.067 167.042C295.852 167.324 294.626 167.554 293.388 167.734H293.38C293.231 167.755 293.086 167.776 292.937 167.798C292.924 167.798 292.911 167.802 292.894 167.802C292.894 167.806 292.894 167.806 292.89 167.802C292.728 167.823 292.561 167.845 292.4 167.866C292.388 167.869 292.377 167.871 292.365 167.87C292.212 167.892 292.054 167.909 291.901 167.926C291.735 167.943 291.568 167.96 291.402 167.977C291.274 167.99 291.146 168.003 291.018 168.015C291.007 168.019 290.996 168.021 290.984 168.02C290.869 168.028 290.754 168.041 290.639 168.05H290.622C290.524 168.058 290.422 168.067 290.324 168.075C289.134 168.169 287.941 168.212 286.73 168.212C285.421 168.212 284.121 168.161 282.838 168.05H282.825C282.548 168.024 282.276 167.998 282.003 167.973C281.93 167.964 281.862 167.96 281.79 167.951C281.777 167.951 281.76 167.947 281.747 167.947C281.726 167.943 281.704 167.943 281.679 167.939C281.667 167.939 281.656 167.938 281.645 167.934C281.551 167.926 281.457 167.913 281.359 167.904L281.039 167.866C280.933 167.853 280.826 167.836 280.72 167.823C280.694 167.819 280.673 167.819 280.647 167.815C280.57 167.806 280.494 167.793 280.417 167.781C280.379 167.776 280.34 167.772 280.306 167.768C280.229 167.755 280.157 167.746 280.08 167.734H280.076C277.737 167.396 275.428 166.875 273.17 166.175C273.051 166.136 272.932 166.102 272.812 166.064C272.808 166.064 272.804 166.059 272.799 166.059C272.765 166.047 272.727 166.038 272.693 166.025C272.373 165.923 272.058 165.816 271.742 165.705C271.308 165.56 270.877 165.402 270.446 165.239C270.331 165.192 270.216 165.15 270.101 165.103C269.867 165.013 269.637 164.919 269.406 164.825C269.014 164.667 268.622 164.501 268.234 164.33C267.872 164.168 267.514 164.005 267.156 163.834C267.147 163.83 267.134 163.83 267.126 163.822C267.045 163.783 266.964 163.745 266.887 163.706H266.883C264.92 162.762 263.027 161.679 261.218 160.465C260.638 160.076 260.067 159.675 259.504 159.261C259.052 158.923 258.609 158.581 258.166 158.231C255.979 156.488 253.954 154.55 252.117 152.44V152.436C251.985 152.291 251.861 152.141 251.733 151.992C251.712 151.97 251.695 151.949 251.678 151.932C251.597 151.834 251.52 151.74 251.439 151.646V151.642C251.332 151.518 251.226 151.39 251.124 151.262C251.098 151.232 251.077 151.206 251.055 151.18V151.176C250.97 151.074 250.889 150.971 250.804 150.864C250.761 150.813 250.723 150.762 250.68 150.711V150.706C250.429 150.39 250.186 150.074 249.943 149.75C249.879 149.664 249.815 149.575 249.747 149.485C249.44 149.071 249.141 148.648 248.852 148.225V148.221C248.741 148.063 248.634 147.9 248.523 147.742C248.417 147.58 248.31 147.418 248.204 147.256C248.097 147.085 247.986 146.918 247.88 146.747L247.867 146.722C247.76 146.56 247.654 146.389 247.551 146.222C247.47 146.085 247.389 145.953 247.308 145.821C247.257 145.731 247.202 145.641 247.151 145.547C247.131 145.518 247.112 145.488 247.095 145.458C246.976 145.248 246.857 145.039 246.737 144.83C246.597 144.586 246.46 144.339 246.324 144.091C246.273 143.989 246.217 143.886 246.162 143.784C246.14 143.749 246.123 143.715 246.106 143.681C246.042 143.561 245.978 143.438 245.919 143.314C245.855 143.194 245.791 143.07 245.727 142.947C245.667 142.827 245.603 142.703 245.544 142.579C245.497 142.485 245.454 142.391 245.407 142.297C245.404 142.29 245.4 142.283 245.394 142.276C245.373 142.229 245.352 142.186 245.335 142.144C245.33 142.137 245.325 142.13 245.322 142.122C245.275 142.028 245.232 141.93 245.186 141.836C245.126 141.712 245.07 141.584 245.011 141.46C244.972 141.375 244.93 141.285 244.891 141.196C244.836 141.072 244.776 140.948 244.725 140.82C244.666 140.692 244.61 140.563 244.555 140.431C244.539 140.399 244.524 140.366 244.512 140.333C244.482 140.273 244.461 140.213 244.435 140.153C244.367 139.995 244.299 139.833 244.235 139.675C244.158 139.496 244.086 139.312 244.018 139.133C243.949 138.966 243.885 138.795 243.822 138.625L243.796 138.565C242.803 135.944 242.049 133.238 241.545 130.48V130.476C241.261 128.902 241.057 127.314 240.936 125.719C240.931 125.629 240.923 125.543 240.919 125.458C240.842 124.378 240.808 123.293 240.808 122.204C240.808 121.721 240.816 121.243 240.829 120.765C241.127 110.761 244.687 101.131 250.966 93.3468C251.102 93.176 251.239 93.0051 251.379 92.8343C251.52 92.6635 251.665 92.4969 251.806 92.3304C256.479 86.8477 262.372 82.5418 269.011 79.7598C275.649 76.9778 282.848 75.7974 290.025 76.314C297.203 76.8305 304.159 79.0295 310.333 82.7336C316.506 86.4377 321.725 91.5433 325.568 97.6388C325.777 97.9719 325.985 98.3093 326.186 98.6467C326.39 98.9884 326.587 99.33 326.783 99.6759C330.644 106.553 332.668 114.313 332.657 122.204Z" fill="#C6EBFF"/>
<path d="M288.555 92.1098C281.004 94.0512 273.265 95.1702 265.474 95.4475C264.295 95.5118 263.114 95.5037 261.937 95.4234C259.35 95.2054 257.134 94.3908 254.666 93.9456C253.48 93.7322 252.158 93.5761 250.964 93.3455C251.24 93.0025 251.521 92.6636 251.807 92.329C254.382 92.547 256.998 93.2606 259.604 93.5922C264.035 94.1567 269 93.5268 272.359 91.9733C273.988 91.2195 275.237 90.2786 276.86 89.5214C277.081 89.4078 277.321 89.3344 277.567 89.3045C278.035 89.2905 278.498 89.4107 278.9 89.651C281.625 91.029 285.58 92.1488 289.252 91.5327C289.525 91.7472 289.006 91.9916 288.555 92.1098Z" fill="white"/>
<path d="M304.803 96.9591C304.836 96.953 304.87 96.9482 304.903 96.9424C304.762 96.8548 304.63 96.7546 304.507 96.6429L304.803 96.9591Z" fill="white"/>
<path d="M326.782 99.6778C325.248 99.8005 323.707 99.8919 322.157 99.952C320.979 100.016 319.798 100.008 318.621 99.9279C316.034 99.7088 313.818 98.8953 311.35 98.4501C309.088 98.0428 306.34 97.8466 304.903 96.9425C308.615 96.2988 312.461 97.6091 316.288 98.0967C319.384 98.4781 322.522 98.3229 325.566 97.6378C325.989 98.3055 326.395 98.9855 326.782 99.6778Z" fill="white"/>
<path d="M281.553 142.336C289.171 142.336 295.346 136.011 295.346 128.209C295.346 120.407 289.171 114.082 281.553 114.082C273.935 114.082 267.759 120.407 267.759 128.209C267.759 136.011 273.935 142.336 281.553 142.336Z" fill="#FFB6B6"/>
<path d="M308.231 162.865C307.865 163.066 307.494 163.258 307.123 163.442C306.991 163.506 306.854 163.57 306.722 163.638C306.611 163.689 306.501 163.745 306.39 163.796C306.356 163.813 306.326 163.826 306.296 163.843C306.202 163.886 306.113 163.928 306.019 163.971C305.917 164.018 305.814 164.065 305.716 164.112C305.601 164.163 305.49 164.215 305.375 164.261C304.949 164.454 304.518 164.637 304.088 164.812C302.545 165.446 300.968 165.994 299.365 166.452C299.292 166.474 299.216 166.495 299.139 166.516C298.453 166.709 297.762 166.884 297.067 167.042C295.852 167.324 294.626 167.554 293.388 167.734H293.38C293.231 167.755 293.086 167.776 292.937 167.798C292.924 167.798 292.911 167.802 292.894 167.802C292.894 167.806 292.894 167.806 292.89 167.802C292.728 167.823 292.562 167.845 292.4 167.866C292.388 167.869 292.377 167.871 292.365 167.87C292.212 167.892 292.054 167.909 291.901 167.926C291.735 167.943 291.568 167.96 291.402 167.977C291.274 167.99 291.146 168.003 291.018 168.015C291.007 168.019 290.996 168.021 290.984 168.02C290.869 168.028 290.754 168.041 290.639 168.05H290.622C290.524 168.058 290.422 168.067 290.324 168.075C289.134 168.169 287.941 168.212 286.73 168.212C285.421 168.212 284.121 168.161 282.838 168.05H282.825C282.548 168.024 282.276 167.998 282.003 167.973C281.93 167.964 281.862 167.96 281.79 167.951C281.777 167.951 281.76 167.947 281.747 167.947C281.726 167.943 281.704 167.943 281.679 167.939C281.667 167.939 281.656 167.938 281.645 167.934C281.551 167.926 281.457 167.913 281.359 167.904L281.039 167.866C280.933 167.853 280.826 167.836 280.72 167.823C280.694 167.819 280.673 167.819 280.647 167.815C280.57 167.806 280.494 167.793 280.417 167.781C280.379 167.776 280.34 167.772 280.306 167.768C280.229 167.755 280.157 167.746 280.08 167.734H280.076C277.737 167.396 275.428 166.875 273.17 166.175C273.051 166.136 272.932 166.102 272.812 166.064C273.363 163.492 274.496 161.082 276.124 159.019C277.752 156.956 279.832 155.295 282.203 154.166C281.617 153.606 281.211 152.883 281.039 152.09C280.929 151.579 280.92 151.051 281.014 150.536C281.107 150.022 281.301 149.531 281.585 149.092C282.138 148.241 283.006 147.645 283.998 147.435L290.315 146.111C291.332 145.912 292.386 146.124 293.248 146.7C294.11 147.276 294.711 148.169 294.919 149.186C294.983 149.498 295.012 149.816 295.004 150.134C301.087 154.191 305.465 158.398 308.231 162.865Z" fill="#2EA6E5"/>
<path d="M318.463 122.082C316.118 119.343 315.004 115.709 313.129 112.598C311.255 109.487 307.993 106.703 304.547 107.427C302.172 107.926 300.336 110.026 299.407 112.367C298.478 114.709 298.304 117.29 298.141 119.82C298.198 114.622 294.78 109.583 290.072 107.924C285.363 106.266 279.728 108.116 276.77 112.292C275.479 111.093 273.793 110.41 272.033 110.373C270.273 110.336 268.561 110.947 267.221 112.091C264.574 114.46 263.988 118.971 265.935 121.993C267.881 125.016 272.096 126.142 275.189 124.466L276.282 125.473C275.667 127.63 276.86 130.178 278.867 130.99C280.494 131.648 282.791 131.538 283.4 133.249C283.825 134.444 283.03 135.72 282.184 136.639C281.338 137.557 280.334 138.506 280.232 139.777C280.079 141.694 282.057 143.038 283.855 143.442C288.191 144.418 293.002 142.406 295.501 138.573C295.549 138.499 295.601 138.425 295.658 138.351C297.06 136.554 298.082 134.49 298.661 132.285C299.24 130.08 299.364 127.779 299.026 125.524C298.885 124.638 299.027 123.979 299.636 123.769C302.272 122.863 309.656 124.766 311.89 126.486C314.125 128.207 315.915 130.484 318.067 132.315C320.22 134.146 322.963 135.559 325.696 135.06C327.885 134.661 329.747 133.069 330.999 131.148C332.252 129.228 332.973 126.99 333.618 124.765C328.778 127.566 322.153 126.394 318.463 122.082Z" fill="#2F2E41"/>
<path d="M35.3062 93.5902C35.3062 94.628 35.3403 95.6657 35.4128 96.695C35.4895 97.9249 35.6217 99.1463 35.8007 100.359C36.4024 104.443 37.5523 108.427 39.2194 112.202C39.3046 112.39 39.3899 112.578 39.4752 112.766L39.603 113.047C39.6457 113.141 39.6925 113.235 39.7352 113.325C39.7949 113.449 39.8503 113.568 39.9099 113.688C39.9824 113.837 40.0549 113.987 40.1316 114.136C40.1401 114.154 40.1487 114.175 40.1614 114.196C40.2254 114.324 40.2851 114.448 40.3533 114.576C40.3658 114.604 40.38 114.631 40.3959 114.657C40.4684 114.803 40.5451 114.952 40.6218 115.097C40.7071 115.251 40.7881 115.409 40.8733 115.563C41.0779 115.943 41.2911 116.319 41.5085 116.695C41.5724 116.806 41.6363 116.917 41.7046 117.028C41.7642 117.13 41.8239 117.233 41.8879 117.335C41.9305 117.404 41.9731 117.476 42.0157 117.544C42.0839 117.66 42.1521 117.771 42.2246 117.886C42.3823 118.138 42.5443 118.39 42.702 118.642H42.7063C42.7788 118.757 42.8555 118.873 42.9322 118.984V118.988C43.1581 119.33 43.3926 119.671 43.627 120.009C43.6276 120.009 43.6282 120.009 43.6287 120.009C43.6292 120.009 43.6297 120.009 43.6301 120.01C43.6305 120.01 43.6308 120.011 43.631 120.011C43.6312 120.012 43.6313 120.012 43.6313 120.013C43.8189 120.286 44.0149 120.551 44.2068 120.816V120.82C44.3346 120.987 44.4583 121.157 44.5862 121.324C44.6885 121.461 44.795 121.602 44.9016 121.738C44.9229 121.768 44.9485 121.794 44.9698 121.824V121.828C44.9996 121.866 45.0295 121.901 45.0593 121.939C45.5112 122.52 45.9772 123.088 46.4575 123.643L46.5342 123.733C46.5598 123.763 46.5896 123.792 46.6152 123.827C46.6578 123.874 46.6962 123.921 46.7388 123.968C46.7772 124.015 46.8198 124.061 46.8624 124.108C49.366 126.934 52.2047 129.442 55.3154 131.578C55.7289 131.864 56.1509 132.142 56.5729 132.411C56.6795 132.479 56.7861 132.547 56.8926 132.611C56.9225 132.633 56.9566 132.654 56.9864 132.675C57.0461 132.71 57.1015 132.744 57.1612 132.782C57.2166 132.816 57.272 132.851 57.3317 132.885C57.5576 133.026 57.7878 133.162 58.018 133.299C58.0734 133.333 58.1331 133.367 58.1928 133.402C58.2482 133.431 58.3079 133.466 58.3675 133.5C58.3675 133.504 58.3675 133.504 58.3718 133.504H58.3761V133.508H58.3803C58.6659 133.675 58.9558 133.837 59.2499 133.995C59.4076 134.081 59.5696 134.17 59.7316 134.251C60.0982 134.452 60.4691 134.644 60.8399 134.828C60.9721 134.892 61.1085 134.956 61.2406 135.024C61.3514 135.076 61.4623 135.131 61.5731 135.182C61.6072 135.199 61.637 135.212 61.6669 135.229C61.7607 135.272 61.8502 135.315 61.944 135.357C62.0463 135.404 62.1486 135.451 62.2466 135.498C62.3617 135.55 62.4725 135.601 62.5876 135.648C63.0139 135.84 63.4444 136.024 63.875 136.199C65.4179 136.832 66.9947 137.38 68.5981 137.839C68.6705 137.86 68.7473 137.881 68.824 137.903C69.5103 138.095 70.2009 138.27 70.8957 138.428C72.1106 138.71 73.3368 138.941 74.5744 139.12H74.583C74.7322 139.141 74.8771 139.163 75.0263 139.184C75.0391 139.184 75.0519 139.188 75.0689 139.188C75.0689 139.193 75.0689 139.193 75.0732 139.188C75.2352 139.21 75.4014 139.231 75.5634 139.252C75.5744 139.256 75.586 139.257 75.5975 139.257C75.7509 139.278 75.9087 139.295 76.0621 139.312C76.2284 139.329 76.3946 139.346 76.5609 139.363C76.6887 139.376 76.8166 139.389 76.9445 139.402C76.9555 139.406 76.9671 139.407 76.9786 139.406C77.0937 139.415 77.2088 139.427 77.3239 139.436H77.3409C77.439 139.444 77.5413 139.453 77.6393 139.462C78.8286 139.556 80.0222 139.598 81.2328 139.598C82.5415 139.598 83.8416 139.547 85.1247 139.436H85.1375C85.4145 139.41 85.6874 139.385 85.9602 139.359C86.0326 139.351 86.1008 139.346 86.1733 139.338C86.1861 139.338 86.2031 139.333 86.2159 139.333C86.2372 139.329 86.2585 139.329 86.2841 139.325C86.2956 139.325 86.3072 139.324 86.3182 139.321C86.412 139.312 86.5058 139.299 86.6038 139.291L86.9235 139.252C87.0301 139.24 87.1367 139.222 87.2432 139.21C87.2688 139.205 87.2901 139.205 87.3157 139.201C87.3924 139.193 87.4692 139.18 87.5459 139.167C87.5843 139.163 87.6226 139.158 87.6567 139.154C87.7335 139.141 87.8059 139.133 87.8826 139.12H87.8869C90.226 138.783 92.535 138.261 94.7925 137.561C94.9119 137.523 95.0312 137.489 95.1506 137.45C95.1549 137.45 95.1591 137.446 95.1634 137.446C95.1975 137.433 95.2359 137.424 95.27 137.412C95.5897 137.309 95.9051 137.202 96.2205 137.091C96.6553 136.946 97.0859 136.788 97.5164 136.626C97.6315 136.579 97.7466 136.536 97.8617 136.489C98.0961 136.4 98.3263 136.306 98.5565 136.212C98.9487 136.054 99.3408 135.887 99.7288 135.716C100.091 135.554 100.449 135.392 100.807 135.221C100.816 135.217 100.829 135.217 100.837 135.208C100.918 135.17 100.999 135.131 101.076 135.093H101.08C103.043 134.149 104.936 133.066 106.745 131.851C107.325 131.463 107.896 131.061 108.459 130.647C108.911 130.31 109.354 129.968 109.797 129.618C111.984 127.875 114.009 125.936 115.846 123.827V123.822C115.978 123.677 116.102 123.528 116.23 123.378C116.251 123.357 116.268 123.336 116.285 123.318C116.366 123.22 116.443 123.126 116.524 123.032V123.028C116.63 122.904 116.737 122.776 116.839 122.648C116.865 122.618 116.886 122.592 116.908 122.567V122.563C116.993 122.46 117.074 122.358 117.159 122.251C117.202 122.2 117.24 122.148 117.283 122.097V122.093C117.534 121.777 117.777 121.461 118.02 121.136C118.084 121.051 118.148 120.961 118.216 120.871C118.523 120.457 118.821 120.034 119.111 119.611V119.607C119.222 119.449 119.329 119.287 119.44 119.129C119.546 118.967 119.653 118.804 119.759 118.642C119.866 118.471 119.977 118.305 120.083 118.134L120.096 118.108C120.203 117.946 120.309 117.775 120.411 117.609C120.492 117.472 120.573 117.339 120.654 117.207C120.706 117.117 120.761 117.028 120.812 116.934C120.832 116.905 120.851 116.875 120.868 116.844C120.987 116.635 121.106 116.426 121.226 116.216C121.366 115.973 121.503 115.725 121.639 115.477C121.69 115.375 121.746 115.272 121.801 115.17C121.822 115.136 121.84 115.102 121.857 115.067C121.92 114.948 121.984 114.824 122.044 114.7C122.108 114.581 122.172 114.457 122.236 114.333C122.296 114.213 122.36 114.089 122.419 113.966C122.466 113.872 122.509 113.778 122.556 113.684C122.559 113.676 122.563 113.669 122.568 113.662C122.59 113.615 122.611 113.573 122.628 113.53C122.633 113.524 122.638 113.516 122.641 113.509C122.688 113.415 122.73 113.316 122.777 113.223C122.837 113.099 122.892 112.971 122.952 112.847C122.99 112.761 123.033 112.672 123.071 112.582C123.127 112.458 123.187 112.334 123.238 112.206C123.297 112.078 123.353 111.95 123.408 111.817C123.424 111.786 123.438 111.753 123.451 111.719C123.481 111.659 123.502 111.6 123.528 111.54C123.596 111.382 123.664 111.22 123.728 111.062C123.805 110.882 123.877 110.699 123.945 110.519C124.013 110.353 124.077 110.182 124.141 110.011L124.167 109.951C125.16 107.33 125.913 104.624 126.418 101.867V101.863C126.702 100.288 126.905 98.7002 127.027 97.105C127.031 97.0153 127.04 96.9299 127.044 96.8445C127.121 95.764 127.155 94.6792 127.155 93.5902C127.155 93.1076 127.147 92.6293 127.134 92.151C126.836 82.1475 123.276 72.5171 116.997 64.7332C116.861 64.5624 116.724 64.3915 116.584 64.2207C116.443 64.0499 116.298 63.8833 116.157 63.7168C111.484 58.2341 105.591 53.9282 98.9522 51.1462C92.3135 48.3642 85.1151 47.1839 77.9376 47.7004C70.76 48.217 63.8039 50.4159 57.6302 54.12C51.4565 57.8241 46.2379 62.9297 42.3951 69.0252C42.1863 69.3583 41.9774 69.6957 41.777 70.0331C41.5724 70.3748 41.3763 70.7164 41.1803 71.0624C37.3185 77.9395 35.2951 85.6994 35.3062 93.5902Z" fill="#C6EBFF"/>
<path d="M79.4074 63.4962C86.9591 65.4376 94.6979 66.5566 102.489 66.8339C103.668 66.8982 104.849 66.8901 106.026 66.8098C108.613 66.5918 110.829 65.7772 113.297 65.332C114.483 65.1186 115.805 64.9625 116.999 64.7319C116.723 64.3889 116.442 64.05 116.156 63.7154C113.581 63.9334 110.965 64.647 108.359 64.9786C103.928 65.5431 98.9632 64.9132 95.6043 63.3597C93.9746 62.6059 92.7263 61.665 91.1024 60.9078C90.8815 60.7942 90.6423 60.7208 90.3958 60.6909C89.9276 60.6769 89.4651 60.7971 89.0628 61.0374C86.3383 62.4154 82.3827 63.5352 78.7111 62.9191C78.4374 63.1337 78.9574 63.378 79.4074 63.4962Z" fill="white"/>
<path d="M63.1602 68.3456C63.1267 68.3394 63.093 68.3346 63.0595 68.3288C63.2005 68.2412 63.3333 68.141 63.4563 68.0293L63.1602 68.3456Z" fill="white"/>
<path d="M41.1812 71.0642C42.7146 71.187 44.2561 71.2784 45.8056 71.3384C46.9838 71.4021 48.1648 71.3941 49.342 71.3143C51.929 71.0952 54.1451 70.2817 56.613 69.8365C58.8748 69.4292 61.6233 69.233 63.0594 68.3289C59.3478 67.6852 55.5021 68.9955 51.6748 69.4831C48.579 69.8645 45.4407 69.7093 42.3974 69.0242C41.9737 69.6919 41.5683 70.372 41.1812 71.0642Z" fill="white"/>
<path d="M59.7316 134.251C60.0982 134.452 60.4691 134.644 60.8399 134.828C60.9721 134.892 61.1085 134.956 61.2406 135.024C61.3515 135.076 61.4623 135.131 61.5731 135.182C61.6072 135.199 61.6371 135.212 61.6669 135.229C61.7607 135.272 61.8502 135.315 61.944 135.357C62.0463 135.404 62.1486 135.451 62.2466 135.498C62.3617 135.55 62.4725 135.601 62.5876 135.648C63.0139 135.84 63.4444 136.024 63.875 136.199C65.4179 136.832 66.9947 137.38 68.5981 137.839C68.6706 137.86 68.7473 137.881 68.824 137.903C69.5103 138.095 70.2009 138.27 70.8957 138.428C72.1106 138.71 73.3368 138.941 74.5744 139.12H74.583C74.7322 139.141 74.8771 139.163 75.0263 139.184C75.0391 139.184 75.0519 139.188 75.0689 139.188C75.0689 139.193 75.0689 139.193 75.0732 139.188C75.2352 139.21 75.4014 139.231 75.5634 139.252C75.5744 139.256 75.586 139.257 75.5975 139.257C75.751 139.278 75.9087 139.295 76.0621 139.312C76.2284 139.329 76.3946 139.346 76.5609 139.363C76.6888 139.376 76.8166 139.389 76.9445 139.402C76.9555 139.406 76.9671 139.407 76.9786 139.406C77.0937 139.415 77.2088 139.427 77.3239 139.436H77.3409C77.439 139.445 77.5413 139.453 77.6393 139.462C78.8286 139.556 80.0222 139.598 81.2328 139.598C82.5415 139.598 83.8416 139.547 85.1247 139.436H85.1375C85.4145 139.41 85.6874 139.385 85.9602 139.359C86.0326 139.351 86.1008 139.346 86.1733 139.338C86.1861 139.338 86.2032 139.333 86.2159 139.333C86.2373 139.329 86.2586 139.329 86.2841 139.325C86.2957 139.325 86.3072 139.324 86.3182 139.321C86.412 139.312 86.5058 139.299 86.6038 139.291L86.9236 139.252C87.0301 139.24 87.1367 139.222 87.2433 139.21C87.2688 139.205 87.2901 139.205 87.3157 139.201C87.3924 139.193 87.4692 139.18 87.5459 139.167C87.5843 139.163 87.6226 139.158 87.6567 139.154C87.7335 139.141 87.8059 139.133 87.8827 139.12H87.8869C90.226 138.783 92.535 138.261 94.7925 137.561C94.9119 137.523 95.0312 137.489 95.1506 137.45C94.6002 134.879 93.4671 132.468 91.8388 130.405C90.2105 128.342 88.1306 126.682 85.7598 125.552C86.3462 124.992 86.7516 124.269 86.9236 123.476C87.0342 122.965 87.043 122.437 86.9493 121.923C86.8557 121.408 86.6615 120.918 86.3779 120.478C85.8248 119.627 84.9569 119.031 83.9652 118.821L77.6479 117.498C76.6309 117.299 75.5768 117.51 74.7147 118.086C73.8526 118.662 73.2523 119.556 73.0441 120.572C72.9797 120.884 72.9511 121.202 72.9589 121.52C66.8759 125.578 62.4981 129.784 59.7316 134.251Z" fill="#2EA6E5"/>
<path d="M84.7233 113.225C93.2158 113.225 100.1 106.328 100.1 97.8195C100.1 89.3112 93.2158 82.4138 84.7233 82.4138C76.2309 82.4138 69.3463 89.3112 69.3463 97.8195C69.3463 106.328 76.2309 113.225 84.7233 113.225Z" fill="#9E616A"/>
<path d="M82.5382 112.402C78.6886 113.443 74.4445 112.059 71.4403 109.432C68.436 106.805 66.5567 103.082 65.4739 99.2375C64.6809 96.4216 64.3048 93.2958 65.5563 90.6522C66.8078 88.0086 70.1759 86.2251 72.7744 87.5604C71.1714 85.6893 71.9722 82.5946 73.8444 80.9939C75.7166 79.3933 78.2873 78.9343 80.7358 78.6835C84.2892 78.3194 87.9596 78.2787 91.3409 79.432C94.7222 80.5853 97.7945 83.1069 98.8527 86.5248C99.9336 87.029 101.151 87.1598 102.314 86.8967C103.477 86.6336 104.52 85.9916 105.279 85.0711C105.475 86.1283 105.318 87.2207 104.832 88.1793C104.346 89.1379 103.558 89.9093 102.59 90.374L107.771 88.6912C108.662 90.5807 107.1 92.9192 105.104 93.5243C103.107 94.1294 100.952 93.468 99.0577 92.5938C97.1632 91.7197 95.3272 90.6145 93.2693 90.2736C91.2114 89.9327 88.7941 90.5951 87.8422 92.4545C87.3437 93.4284 87.3177 94.5691 87.0282 95.6245C86.7388 96.6798 86.0055 97.7741 84.9164 97.8605C84.2284 97.915 83.5547 97.5478 82.8685 97.6229C82.4474 97.706 82.0597 97.9103 81.7527 98.2108C81.4457 98.5112 81.2329 98.8949 81.1402 99.3147C80.9694 100.157 80.9673 101.025 81.1341 101.869L82.4501 111.947L82.5382 112.402Z" fill="#2F2E41"/>
</g>
<defs>
<clipPath id="clip0_11_285">
<rect width="345" height="269" fill="white"/>
</clipPath>
</defs>
</svg>
